<svg width="493" height="159" viewBox="0 0 493 159" fill="none" xmlns="http://www.w3.org/2000/svg">
<path d="M31.7615 59.3685C28.2843 59.3914 24.815 59.0325 21.4159 58.2984C18.6594 57.7156 15.9922 56.7696 13.4842 55.4849C11.3798 54.3641 9.45577 52.9327 7.77686 51.2387C6.24365 49.7476 4.93141 48.0445 3.88 46.1813C2.91006 44.4397 2.11308 42.607 1.5005 40.7097C0.932573 38.9794 0.528463 37.1994 0.293504 35.3934C0.101388 33.8069 0.00350736 32.2103 0.000377046 30.6122V28.3855C-0.00965968 26.0319 0.180699 23.6817 0.569388 21.3604C1.07517 18.7815 1.94609 16.2881 3.1558 13.9556C4.44829 11.2964 6.23284 8.90674 8.41484 6.91322C11.1508 4.66051 14.3114 2.9817 17.7087 1.97665C22.2589 0.578107 27.0026 -0.0861182 31.7615 0.00892994H34.3824C39.0384 -0.0614579 43.6813 0.519512 48.1766 1.735C51.5018 2.56313 54.6463 3.99662 57.4532 5.96388C59.5679 7.55914 61.3834 9.51684 62.8157 11.7462C64.0363 13.5453 64.951 15.5341 65.5229 17.6321C65.9212 19.2592 66.1237 20.928 66.1264 22.6032C66.1264 23.0703 65.7477 23.449 65.2806 23.449H51.2914C50.7742 23.449 50.3349 23.0809 50.1959 22.5827C50.1149 22.2926 50.0223 22.0058 49.9182 21.7229C49.514 20.8907 49.0227 20.1038 48.4525 19.3755C47.6727 18.2978 46.6955 17.3782 45.573 16.6655C44.0176 15.7807 42.346 15.1184 40.6071 14.6978C38.1329 14.0759 35.5882 13.78 33.0375 13.8175C30.0841 13.7532 27.1407 14.1849 24.3299 15.0948C22.2429 15.7264 20.3698 16.9207 18.9157 18.5469C17.764 19.9336 16.8863 21.5269 16.3293 23.2418C15.7739 25.0296 15.5004 26.8932 15.5189 28.7653V29.6974C15.509 31.5164 15.8003 33.3245 16.381 35.0482C16.9913 36.8592 17.9069 38.5522 19.0881 40.0538C20.5267 41.8299 22.4227 43.1788 24.5713 43.9547C27.323 44.9983 30.2511 45.4966 33.1927 45.4219C42.9406 45.4219 48.6882 42.1078 50.4354 35.4797C50.4534 35.3529 50.5499 35.238 50.6779 35.238H65.3668C65.8339 35.238 66.2126 35.6167 66.2126 36.0838C66.1988 37.8308 65.973 39.5696 65.5401 41.262C64.937 43.4145 64.0003 45.4588 62.764 47.3205C61.3261 49.5914 59.4922 51.585 57.3498 53.2064C54.5414 55.1946 51.3994 56.662 48.0732 57.5389C43.6149 58.7635 39.0048 59.3447 34.3824 59.265L31.7615 59.3685Z" fill="#F4FFFE"/>
<path d="M105.319 0.14784C109.075 0.113402 112.824 0.460392 116.51 1.18348C119.428 1.72696 122.262 2.64958 124.941 3.92794C127.132 4.99229 129.144 6.3897 130.907 8.07051C132.448 9.52056 133.783 11.1758 134.873 12.9898C135.863 14.6847 136.644 16.4929 137.201 18.3752C137.74 20.0622 138.121 21.7957 138.339 23.5534C138.515 25.164 138.602 26.7833 138.598 28.4036V30.7166C138.6 32.3081 138.514 33.8986 138.339 35.4805C138.123 37.2667 137.742 39.0291 137.201 40.745C136.641 42.6482 135.872 44.4832 134.908 46.2167C133.83 48.0649 132.488 49.7454 130.925 51.205C129.167 52.9082 127.161 54.3341 124.976 55.4339C122.3 56.7351 119.465 57.681 116.544 58.2474C112.851 58.9993 109.088 59.358 105.319 59.3176H103.302C99.5214 59.3559 95.7476 58.9973 92.0421 58.2474C89.1095 57.6833 86.2633 56.7374 83.5759 55.4339C81.3862 54.3453 79.3698 52.9376 77.5927 51.2568C76.0293 49.7882 74.6772 48.1094 73.5751 46.2685C72.6023 44.5414 71.8383 42.7046 71.2991 40.7968C70.7715 39.0784 70.3964 37.3167 70.1783 35.5323C70.0033 33.9504 69.917 32.3599 69.9196 30.7683V28.4554C69.9146 26.8523 70.001 25.2502 70.1783 23.6569C70.4039 21.9021 70.7789 20.1697 71.2991 18.4787C71.8345 16.5861 72.5989 14.766 73.5751 13.0589C74.6832 11.2222 76.0347 9.54413 77.5927 8.07051C79.3495 6.38987 81.3563 4.99238 83.5414 3.92794C86.2442 2.6481 89.1017 1.72555 92.0421 1.18348C95.7514 0.463086 99.5233 0.116143 103.302 0.14784H105.319ZM123.079 28.9905C123.083 27.6201 122.933 26.2536 122.631 24.917C122.264 23.5019 121.682 22.1514 120.906 20.9125C120.042 19.554 118.916 18.3807 117.596 17.4603C115.914 16.3147 114.047 15.468 112.078 14.9575C109.941 14.4068 107.749 14.0942 105.543 14.0255H103.457C91.4444 14.3131 85.4324 19.3072 85.4209 29.0077V29.9398C85.4125 31.6968 85.6802 33.4443 86.214 35.118C86.8245 36.9026 87.7406 38.5672 88.9212 40.0373C90.4786 41.8893 92.5297 43.2601 94.8354 43.99C97.6908 44.9547 100.685 45.4444 103.698 45.4399H105.216C108.031 45.405 110.824 44.9274 113.492 44.0246C115.787 43.3133 117.843 41.9883 119.441 40.1927C120.657 38.7512 121.593 37.0944 122.2 35.3079C122.739 33.6351 123.013 31.8876 123.01 30.1297L123.079 28.9905Z" fill="#F4FFFE"/>
<path d="M175.653 1.33235C179.672 1.3022 183.684 1.65476 187.637 2.38525C190.752 2.92376 193.765 3.94275 196.568 5.40588C198.789 6.61785 200.846 8.10856 202.69 9.84188C204.347 11.4011 205.673 13.2799 206.586 15.3653C207.443 17.3121 208.096 19.3424 208.535 21.4238C208.946 23.5159 209.148 25.6436 209.138 27.7758V30.0197C209.153 32.5376 208.893 35.0496 208.362 37.5108C207.76 40.0764 206.741 42.5255 205.345 44.7603C203.839 47.2563 201.852 49.4273 199.5 51.1468C196.554 53.1668 193.273 54.6455 189.809 55.5137C185.209 56.733 180.463 57.3138 175.705 57.2398H145.283C144.686 57.2398 144.202 56.7558 144.202 56.1587V2.41349C144.202 1.81639 144.686 1.33235 145.283 1.33235H175.653ZM159.065 42.7126C159.065 43.3097 159.549 43.7937 160.147 43.7937H174.584C187.286 43.7937 193.643 38.978 193.654 29.3465V28.9495C193.654 19.3755 187.298 14.5886 174.584 14.5886H160.147C159.549 14.5886 159.065 15.0726 159.065 15.6697V42.7126Z" fill="#F4FFFE"/>
<path d="M290.99 40.1332L277.106 56.8483C276.901 57.0955 276.596 57.2386 276.274 57.2386H261.074C260.157 57.2386 259.656 56.1686 260.244 55.4646L281.428 30.09C281.763 29.6888 281.763 29.1054 281.428 28.7042L260.745 3.93375C260.157 3.22977 260.657 2.15967 261.574 2.15967H278.338C278.663 2.15967 278.97 2.30564 279.175 2.55723L300.784 29.0346" fill="#4BB749"/>
<path opacity="0.3" d="M291.972 40.1332L305.856 56.8483C306.061 57.0955 306.366 57.2386 306.688 57.2386H321.856C322.772 57.2386 323.273 56.1693 322.686 55.4652L301.533 30.0899C301.199 29.6887 301.199 29.1057 301.534 28.7047L322.217 3.93375C322.805 3.22977 322.305 2.15967 321.388 2.15967H304.624C304.299 2.15967 303.992 2.30564 303.787 2.55723L282.178 29.0346" fill="#4BB749"/>
<path d="M342.305 56.1581C342.305 56.7552 341.82 57.2392 341.223 57.2392H328.591C327.994 57.2392 327.51 56.7552 327.51 56.1581V2.63729C327.51 2.04019 327.994 1.55615 328.591 1.55615H341.223C341.82 1.55615 342.305 2.0402 342.305 2.63729V56.1581Z" fill="#F4FFFE"/>
<path d="M409.039 1.55615C409.636 1.55615 410.12 2.0402 410.12 2.63729V28.5346C410.115 30.9151 409.89 33.29 409.448 35.6288C408.918 38.3106 408.036 40.9107 406.827 43.3616C405.557 46.0571 403.843 48.5194 401.757 50.6456C399.363 52.9561 396.499 54.7224 393.36 55.8238C389.438 57.2724 385.281 57.9805 381.101 57.9124H378.825C375.591 57.9445 372.365 57.5793 369.22 56.825C366.648 56.233 364.179 55.2615 361.892 53.9424C359.963 52.763 358.219 51.3029 356.719 49.61C355.295 48.0505 354.083 46.3094 353.116 44.4318C352.204 42.6439 351.471 40.7707 350.926 38.8393C350.399 37.0492 350.019 35.2193 349.788 33.3676C349.596 31.7349 349.498 30.0924 349.495 28.4483V2.63729C349.495 2.04019 349.979 1.55615 350.576 1.55615H363.242C363.839 1.55615 364.323 2.0402 364.323 2.63729V27.4472C364.309 29.3267 364.535 31.2004 364.996 33.0224C365.48 34.8187 366.236 36.5301 367.237 38.0971C368.428 39.8746 370.121 41.2567 372.1 42.067C374.579 43.0933 377.246 43.5872 379.928 43.5169C382.565 43.5865 385.187 43.0922 387.618 42.067C389.576 41.2369 391.253 39.8583 392.446 38.0971C393.465 36.535 394.233 34.8227 394.722 33.0224C395.183 31.2004 395.409 29.3267 395.395 27.4472V2.63729C395.395 2.0402 395.879 1.55615 396.476 1.55615H409.039Z" fill="#F4FFFE"/>
<path d="M417.827 2.51571C417.827 1.91861 418.311 1.43457 418.908 1.43457H438.211C438.63 1.43457 439.012 1.67676 439.19 2.05608L454.234 34.0863C454.623 34.9138 455.799 34.9153 456.19 34.0886L471.332 2.0537C471.511 1.67567 471.891 1.43457 472.309 1.43457H490.838C491.435 1.43457 491.919 1.91861 491.919 2.51571V56.1573C491.919 56.7544 491.435 57.2384 490.838 57.2384H478.361C477.764 57.2384 477.28 56.7544 477.28 56.1573V23.326C477.28 22.1766 475.724 21.8212 475.225 22.8567L458.953 56.6266C458.773 57.0007 458.394 57.2384 457.979 57.2384H451.388C450.973 57.2384 450.595 57.0007 450.414 56.6266L434.142 22.8567C433.643 21.8212 432.087 22.1766 432.087 23.326V56.1573C432.087 56.7544 431.603 57.2384 431.006 57.2384H418.908C418.311 57.2384 417.827 56.7544 417.827 56.1573V2.51571Z" fill="#F4FFFE"/>
<path d="M229.328 35.3445V43.3425C229.328 43.9396 229.812 44.4236 230.41 44.4236H263.078C263.991 44.4236 264.493 45.4856 263.913 46.1911L254.984 57.0587C254.778 57.3097 254.469 57.4547 254.145 57.4534L215.783 57.3043C215.188 57.3019 214.707 56.8186 214.707 56.2231V3.01363C214.707 2.41468 215.193 1.92987 215.792 1.9325L253.528 2.09818C253.841 2.09955 254.137 2.23627 254.342 2.47305L263.186 12.7234C263.79 13.424 263.292 14.5108 262.367 14.5108H230.41C229.812 14.5108 229.328 14.9948 229.328 15.5919V22.6924" fill="#4BB749"/>
<path d="M248.071 35.8336C248.071 35.828 248.073 35.8227 248.077 35.8189L254.029 30.2832C254.254 30.0745 254.26 29.7211 254.043 29.5047L248.077 23.5518C248.073 23.548 248.071 23.5428 248.071 23.5374C248.071 23.5262 248.061 23.5171 248.05 23.5171H248.036H229.537C229.238 23.5171 228.996 23.7591 228.996 24.0577V35.313C228.996 35.6116 229.238 35.8536 229.537 35.8536H248.036H248.051C248.062 35.8536 248.071 35.8447 248.071 35.8336Z" fill="#4BB749"/>
<path d="M37.1794 158.834C36.5823 158.834 36.0983 158.35 36.0983 157.753V100.702C36.0983 100.105 35.6143 99.6211 35.0172 99.6211H1.08114C0.484043 99.6211 0 99.137 0 98.5399V82.2951C0 81.698 0.484043 81.214 1.08114 81.214H97.749C98.3461 81.214 98.8301 81.698 98.8301 82.2951V98.5399C98.8301 99.137 98.346 99.6211 97.749 99.6211H63.7029C63.1058 99.6211 62.6217 100.105 62.6217 100.702V157.753C62.6217 158.35 62.1377 158.834 61.5406 158.834H37.1794Z" fill="#F4FFFE"/>
<path d="M117.644 82.0733C117.644 81.4762 118.128 80.9922 118.725 80.9922H205.157C205.754 80.9922 206.239 81.4762 206.239 82.0733V97.542C206.239 98.139 205.754 98.6231 205.157 98.6231H144.698C144.101 98.6231 143.617 99.1071 143.617 99.7042V109.074C143.617 109.671 144.101 110.155 144.698 110.155H203.727C204.324 110.155 204.808 110.639 204.808 111.236V126.816C204.808 127.413 204.324 127.897 203.727 127.897H144.698C144.101 127.897 143.617 128.381 143.617 128.978V139.568C143.617 140.165 144.101 140.649 144.698 140.649H206.368C206.965 140.649 207.449 141.133 207.449 141.73V157.642C207.449 158.239 206.965 158.723 206.368 158.723H118.725C118.128 158.723 117.644 158.239 117.644 157.642V82.0733Z" fill="#4BB749"/>
<path d="M302.536 81.9902C302.935 81.9902 303.301 82.2099 303.489 82.5618L343.275 157.022C343.66 157.742 343.138 158.613 342.321 158.613H318.923C318.517 158.613 318.145 158.385 317.96 158.024L311.409 145.229C311.224 144.868 310.853 144.641 310.447 144.641H256.851C256.445 144.641 256.074 144.868 255.889 145.229L249.338 158.024C249.153 158.385 248.781 158.613 248.375 158.613H225.085C224.269 158.613 223.747 157.743 224.13 157.023L263.809 82.5629C263.997 82.2104 264.364 81.9902 264.763 81.9902H302.536ZM265.91 125.769C265.542 126.488 266.064 127.343 266.873 127.343H300.529C301.339 127.343 301.861 126.485 301.49 125.766L288.078 99.7631C287.893 99.4035 287.522 99.1775 287.117 99.1775H280.183C279.777 99.1775 279.406 99.4048 279.221 99.766L265.91 125.769Z" fill="#F4FFFE"/>
<path d="M362.675 158.834C362.077 158.834 361.593 158.35 361.593 157.753V82.2951C361.593 81.698 362.077 81.214 362.675 81.214H398.29C398.67 81.214 399.022 81.4136 399.217 81.7397L426.923 128.017C427.342 128.717 428.355 128.718 428.776 128.02L456.696 81.7366C456.892 81.4123 457.243 81.214 457.622 81.214H491.919C492.516 81.214 493 81.698 493 82.2951V157.753C493 158.35 492.516 158.834 491.919 158.834H468.108C467.511 158.834 467.027 158.35 467.027 157.753V108.882C467.027 107.791 465.595 107.387 465.024 108.316L450.518 131.944L434.327 158.319C434.13 158.639 433.781 158.834 433.405 158.834H420.527C420.152 158.834 419.803 158.64 419.606 158.32L388.798 108.304C388.226 107.376 386.796 107.781 386.796 108.871V157.753C386.796 158.35 386.312 158.834 385.715 158.834H362.675Z" fill="#F4FFFE"/>
</svg>
