<svg width="48" height="48" viewBox="0 0 48 48" fill="none" xmlns="http://www.w3.org/2000/svg">
<path d="M43.6533 33.1062L39.5542 31.0567L36.9454 24.2708C36.9147 24.1905 36.8678 24.1175 36.8076 24.0562C36.7474 23.9949 36.6752 23.9467 36.5955 23.9146L20.4086 17.4442C20.2954 17.3992 20.1716 17.3882 20.0522 17.4126C19.9329 17.437 19.8233 17.4958 19.7369 17.5817L17.578 19.7406C17.4933 19.827 17.4354 19.9362 17.4116 20.0549C17.3877 20.1736 17.3989 20.2967 17.4437 20.4092L23.9141 36.5961C23.9462 36.6757 23.9944 36.7479 24.0557 36.8081C24.117 36.8684 24.19 36.9153 24.2702 36.946L31.0562 39.5548L33.1057 43.6538C33.1489 43.7442 33.2131 43.8229 33.293 43.8832C33.373 43.9436 33.4662 43.9838 33.565 44.0006C33.5982 44.0037 33.6317 44.0037 33.6649 44.0006C33.8304 43.9999 33.9888 43.9336 34.1055 43.8163L43.8157 34.106C43.8872 34.0371 43.9412 33.952 43.9733 33.8581C44.0053 33.7641 44.0145 33.6638 44.0001 33.5655C43.9833 33.4668 43.9431 33.3735 43.8827 33.2936C43.8223 33.2136 43.7437 33.1494 43.6533 33.1062ZM18.7528 20.3279L19.0995 19.9843L27.1571 28.0418C26.626 28.7942 26.3967 29.7186 26.5144 30.632C26.6321 31.5454 27.0882 32.3814 27.7926 32.9747C28.497 33.5679 29.3984 33.8753 30.3185 33.836C31.2387 33.7967 32.1105 33.4135 32.7618 32.7623C33.413 32.1111 33.7961 31.2392 33.8355 30.3191C33.8748 29.399 33.5674 28.4976 32.9741 27.7932C32.3808 27.0888 31.5448 26.6326 30.6314 26.5149C29.718 26.3972 28.7937 26.6266 28.0412 27.1576L19.9837 19.1001L20.3274 18.7533L35.8769 24.9737L38.3295 31.3535L31.353 38.33L24.9732 35.8775L18.7528 20.3279ZM30.1595 27.7325C30.7211 27.7333 31.265 27.9288 31.6986 28.2857C32.1322 28.6426 32.4287 29.1388 32.5375 29.6897C32.6463 30.2407 32.5607 30.8123 32.2953 31.3072C32.0299 31.8021 31.6011 32.1897 31.082 32.404C30.5629 32.6182 29.9856 32.6459 29.4484 32.4822C28.9112 32.3185 28.4473 31.9737 28.1359 31.5064C27.8244 31.0391 27.6846 30.4782 27.7403 29.9194C27.7959 29.3606 28.0436 28.8384 28.4411 28.4417C28.8973 27.9869 29.5154 27.7319 30.1595 27.7325ZM33.8368 42.3197L32.2746 39.1955L39.1887 32.2814L42.313 33.8436L33.8368 42.3197Z" fill="#F4FFFE"/>
<path d="M15.9596 37.4395C15.8401 37.3266 15.682 37.2637 15.5175 37.2637C15.3531 37.2637 15.1949 37.3266 15.0755 37.4395L14.2819 38.2331C12.1642 35.3589 10.9959 31.8956 10.9399 28.326C10.8839 24.7563 11.943 21.2581 13.9695 18.3189C14.5766 18.653 15.2757 18.7813 15.9619 18.6847C16.6481 18.588 17.2845 18.2716 17.7757 17.7828C18.267 17.294 18.5866 16.6592 18.6867 15.9735C18.7868 15.2878 18.662 14.5881 18.331 13.9793C21.2702 11.9528 24.7684 10.8937 28.338 10.9497C31.9077 11.0057 35.3709 12.174 38.2451 14.2917L37.4391 15.0759C37.3229 15.1931 37.2577 15.3514 37.2579 15.5164C37.2574 15.5987 37.2731 15.6802 37.3042 15.7563C37.3353 15.8324 37.3811 15.9017 37.4391 15.9601L40.1947 18.6938C40.3118 18.8102 40.4701 18.8755 40.6352 18.8755C40.8003 18.8755 40.9587 18.8102 41.0757 18.6938L43.8157 15.9538C43.8738 15.8958 43.9199 15.8269 43.9514 15.751C43.9828 15.6752 43.999 15.5939 43.999 15.5117C43.999 15.4296 43.9828 15.3483 43.9514 15.2725C43.9199 15.1966 43.8738 15.1277 43.8157 15.0697L41.0757 12.3297C40.9587 12.2133 40.8003 12.148 40.6352 12.148C40.4701 12.148 40.3118 12.2133 40.1947 12.3297L39.1355 13.3825C36.5252 11.4183 33.4391 10.1842 30.1942 9.807C26.9492 9.42979 23.6623 9.92306 20.671 11.2362L24.2733 7.64324C24.6818 7.8384 25.1462 7.88258 25.5841 7.76793C26.022 7.65328 26.4052 7.38722 26.6656 7.01694C26.926 6.64666 27.0468 6.19611 27.0067 5.74522C26.9665 5.29432 26.7679 4.87223 26.4461 4.55383C26.1243 4.23542 25.7002 4.04129 25.2489 4.00587C24.7976 3.97046 24.3483 4.09604 23.9808 4.36034C23.6133 4.62465 23.3513 5.01059 23.2413 5.4497C23.1313 5.88881 23.1803 6.35269 23.3798 6.75906L17.2999 12.8483C16.6826 12.4342 15.9407 12.2473 15.2009 12.3195C14.4611 12.3917 13.7693 12.7185 13.2436 13.2441C12.718 13.7697 12.3912 14.4615 12.319 15.2013C12.2468 15.9411 12.4337 16.6831 12.8478 17.3004L6.75861 23.3802C6.35065 23.1815 5.88543 23.1337 5.4456 23.2456C5.00578 23.3574 4.61985 23.6215 4.35638 23.991C4.09292 24.3605 3.96898 24.8115 4.00661 25.2637C4.04423 25.716 4.24097 26.1403 4.56186 26.4612C4.88276 26.7821 5.30703 26.9788 5.75929 27.0164C6.21154 27.054 6.66249 26.9301 7.03199 26.6666C7.4015 26.4032 7.66564 26.0172 7.77747 25.5774C7.8893 25.1376 7.84158 24.6724 7.64278 24.2644L11.2451 20.6715C9.93067 23.662 9.43584 26.9484 9.8114 30.1933C10.187 33.4383 11.4194 36.5248 13.3821 39.136L12.3261 40.1951C12.2097 40.3122 12.1444 40.4706 12.1444 40.6357C12.1444 40.8007 12.2097 40.9591 12.3261 41.0762L15.0661 43.8162C15.1827 43.9335 15.3411 43.9998 15.5066 44.0005C15.5891 44.0006 15.6707 43.9843 15.7469 43.9527C15.823 43.921 15.8921 43.8747 15.9503 43.8162L18.6934 41.0762C18.8098 40.9591 18.8751 40.8007 18.8751 40.6357C18.8751 40.4706 18.8098 40.3122 18.6934 40.1951L15.9596 37.4395ZM40.6415 13.6481L42.4973 15.5039L40.6415 17.3598L38.7856 15.5039L40.6415 13.6481ZM24.6295 5.45624C24.7224 5.36263 24.8409 5.29871 24.9702 5.27259C25.0994 5.24648 25.2335 5.25934 25.3554 5.30955C25.4773 5.35976 25.5816 5.44505 25.6549 5.5546C25.7283 5.66416 25.7674 5.79303 25.7674 5.92488C25.7674 6.05673 25.7283 6.18561 25.6549 6.29516C25.5816 6.40471 25.4773 6.49 25.3554 6.54021C25.2335 6.59042 25.0994 6.60328 24.9702 6.57717C24.8409 6.55105 24.7224 6.48713 24.6295 6.39352C24.5679 6.33201 24.5191 6.25895 24.4857 6.17854C24.4524 6.09813 24.4352 6.01193 24.4352 5.92488C24.4352 5.83783 24.4524 5.75163 24.4857 5.67122C24.5191 5.59081 24.5679 5.51775 24.6295 5.45624ZM14.1319 14.1324C14.3134 13.9501 14.529 13.8054 14.7666 13.7067C15.0041 13.6079 15.2588 13.5571 15.516 13.5571C15.7732 13.5571 16.0279 13.6079 16.2654 13.7067C16.5029 13.8054 16.7186 13.9501 16.9 14.1324C17.1743 14.4062 17.3612 14.7552 17.437 15.1353C17.5129 15.5154 17.4743 15.9094 17.3261 16.2676C17.1779 16.6257 16.9268 16.9318 16.6046 17.1472C16.2824 17.3626 15.9035 17.4776 15.516 17.4776C15.1284 17.4776 14.7495 17.3626 14.4273 17.1472C14.1051 16.9318 13.854 16.6257 13.7059 16.2676C13.5577 15.9094 13.5191 15.5154 13.5949 15.1353C13.6708 14.7552 13.8576 14.4062 14.1319 14.1324ZM6.3962 25.5672C6.26863 25.6736 6.10589 25.7285 5.93995 25.721C5.77402 25.7135 5.61688 25.6442 5.49943 25.5267C5.38198 25.4093 5.31269 25.2521 5.3052 25.0862C5.2977 24.9203 5.35253 24.7575 5.45891 24.63C5.58395 24.5071 5.75224 24.4382 5.92755 24.4382C6.10286 24.4382 6.27116 24.5071 6.3962 24.63C6.45779 24.6915 6.50665 24.7645 6.53999 24.8449C6.57333 24.9254 6.59048 25.0115 6.59048 25.0986C6.59048 25.1856 6.57333 25.2718 6.53999 25.3523C6.50665 25.4327 6.45779 25.5057 6.3962 25.5672ZM15.516 42.479L13.6602 40.6232L15.516 38.7673L17.3718 40.6232L15.516 42.479Z" fill="#F4FFFE"/>
</svg>
