<svg width="155" height="164" viewBox="0 0 155 164" fill="none" xmlns="http://www.w3.org/2000/svg">
<g clip-path="url(#clip0_1224_196)">
<path d="M84.9893 48.8529H96.3352H84.9893ZM71.4823 48.8529H82.8282H71.4823ZM58.2455 48.8529H69.5914H58.2455ZM45.0086 48.8529H56.0843H45.0086ZM31.5016 48.8529H42.8475H31.5016ZM45.0086 36.4264H56.0843H45.0086ZM58.2455 36.4264H69.5914H58.2455ZM71.4823 36.4264H82.8282H71.4823ZM71.4823 24H82.8282H71.4823Z" fill="black"/>
<path d="M84.9893 48.8529H96.3352M71.4823 48.8529H82.8282M58.2455 48.8529H69.5914M45.0086 48.8529H56.0843M31.5016 48.8529H42.8475M45.0086 36.4264H56.0843M58.2455 36.4264H69.5914M71.4823 36.4264H82.8282M71.4823 24H82.8282" stroke="#0091E2" stroke-width="10.2653"/>
<path d="M132.534 49.3932C132.534 49.3932 127.672 44.8008 117.676 46.4217C116.596 38.5876 108.221 33.9952 108.221 33.9952C108.221 33.9952 100.387 43.4501 106.06 53.9856C104.439 54.796 101.738 55.8766 97.686 55.8766H23.3974C22.0467 61.0093 22.0467 95.0469 59.3261 95.0469C86.07 95.0469 106.06 82.6205 115.515 59.9287C129.563 61.0093 132.534 49.3932 132.534 49.3932Z" fill="#0091E2"/>
</g>
<path d="M40.8226 138.8C46.4646 138.8 50.3906 142.518 50.3906 147.9C50.3906 153.256 46.4126 157 40.6666 157H33.1006V138.8H40.8226ZM40.9266 153.542C43.9686 153.542 46.2046 151.254 46.2046 147.926C46.2046 144.572 43.8646 142.258 40.7446 142.258H37.2086V153.542H40.9266ZM59.3231 142.882C63.7951 142.882 66.8111 145.716 66.8111 150.006C66.8111 154.27 63.7951 157.156 59.3231 157.156C54.8251 157.156 51.8091 154.27 51.8091 150.006C51.8091 145.716 54.8251 142.882 59.3231 142.882ZM59.3231 146.21C57.2431 146.21 55.8131 147.77 55.8131 150.058C55.8131 152.346 57.2431 153.906 59.3231 153.906C61.3771 153.906 62.8071 152.346 62.8071 150.058C62.8071 147.77 61.3771 146.21 59.3231 146.21ZM78.7922 147.77C78.0382 146.834 76.9722 146.262 75.5942 146.288C73.6442 146.288 72.2662 147.796 72.2662 150.032C72.2662 152.294 73.6442 153.828 75.5942 153.828C77.0242 153.828 78.1422 153.282 78.8442 152.19L81.6002 154.062C80.4302 156.012 78.2462 157.156 75.3862 157.156C71.1482 157.156 68.2622 154.296 68.2622 150.058C68.2622 145.768 71.1482 142.882 75.4382 142.882C78.1162 142.882 80.2482 143.948 81.4962 145.82L78.7922 147.77ZM93.4166 157L90.0366 151.306L88.2426 153.204V157H84.2386V137.708H88.2426V148.316L93.3646 143.038H97.9146L92.7926 148.42L98.1486 157H93.4166ZM105.501 142.882C110.415 142.882 112.703 146.132 112.365 151.228H102.329C102.797 152.996 104.149 154.036 105.943 154.036C107.269 154.036 108.517 153.516 109.479 152.554L111.585 154.686C110.181 156.246 108.127 157.156 105.605 157.156C101.133 157.156 98.2993 154.296 98.2993 150.058C98.2993 145.742 101.237 142.882 105.501 142.882ZM102.251 148.862H108.621C108.569 147.016 107.373 145.82 105.527 145.82C103.759 145.82 102.563 147.016 102.251 148.862ZM119.013 145.534C119.975 143.818 121.561 142.882 123.641 142.856V146.626C120.781 146.366 119.013 147.9 119.013 150.266V157H115.009V143.012H119.013V145.534Z" fill="white"/>
<defs>
<clipPath id="clip0_1224_196">
<rect width="120" height="120" fill="white" transform="translate(17.5)"/>
</clipPath>
</defs>
</svg>
