<svg width="111" height="61" viewBox="0 0 111 61" fill="none" xmlns="http://www.w3.org/2000/svg">
<path d="M86.4937 49.5896L86.383 49.7117C85.4977 50.6573 84.6611 51.0561 83.3707 51.1004C83.357 52.8454 82.1603 53.9863 80.4198 54.1969C79.1189 54.3544 78.3593 53.9015 77.3829 53.1291C76.8397 53.8056 76.0749 54.072 75.2681 54.3006L75.3614 54.8857C75.4678 55.8112 75.2166 56.6032 74.6294 57.3199C73.085 59.205 70.3308 58.3485 68.3931 57.7107C67.7169 57.4882 67.8807 57.3398 67.4152 57.83C65.7221 59.613 62.9524 59.5772 61.1068 58.0628C58.667 60.16 55.7004 59.1196 54.5448 56.2286C54.2833 55.5743 54.4008 55.9007 53.6227 55.7778C51.5449 55.45 49.9753 53.7817 49.7739 51.6911C49.1595 51.6222 48.576 51.5839 47.9992 51.3395C45.3307 50.2086 44.9927 47.569 46.0327 45.141L45.4261 44.6217C43.4826 42.8801 43.4566 40.4472 45.1913 38.5216C44.2276 37.4754 43.5666 36.5382 42.4481 35.4696C41.2532 34.3279 41.1652 34.3598 39.5404 33.9817L37.6582 33.4925C35.6073 32.8936 31.5531 31.2348 31.0025 28.9572C30.6224 27.3849 31.5442 26.3979 32.4969 25.3244L40.4972 16.0799L46.6343 8.44996C47.0488 7.92737 47.3519 7.33491 48.0433 7.1731C48.8206 7.12837 49.5239 7.97021 50.0908 8.41249C52.6199 10.3864 55.1507 12.7572 55.8696 15.9875C56.053 16.0437 56.2828 16.0318 56.4757 16.0308L60.6206 15.9668C61.2151 15.9762 61.8202 16.0381 62.3974 16.1826L63.3536 16.4599C63.7843 16.5964 63.7584 16.4311 64.1242 16.1637C67.7772 13.4951 72.0959 13.361 76.4046 14.0783C78.3431 14.4009 80.1842 14.8221 82.1522 14.9115C82.2332 14.6976 82.2742 14.463 82.3473 14.2438C83.143 11.8585 84.9838 10.1348 86.8202 8.49209C88.1254 7.32459 88.5063 6.84746 89.8125 8.1554L90.9103 9.3043C93.2619 11.8332 95.3635 14.5978 97.3563 17.4123L101.373 23.0684C102.061 23.9684 102.805 24.8454 103.584 25.6694C104.278 26.4029 105.207 27.0239 105.413 28.0751C106.078 31.4741 101.515 33.0315 99.0156 33.8979C96.9263 34.6218 94.5701 35.5949 92.5715 34.1863C91.6682 36.0169 90.0446 38.2625 88.3745 39.3867C90.1491 41.6434 89.4093 44.2894 86.8639 45.4835C87.5362 46.9872 87.5724 48.225 86.4937 49.5896ZM48.3753 9.694L40.3145 19.6496L33.9865 26.8697C33.62 27.297 33.1751 27.7101 32.9258 28.2184C33.5292 29.6182 35.4658 30.4592 36.8034 30.9912L38.6054 31.6226L41.6283 32.2797L53.2929 14.967C52.1983 12.7938 50.1858 11.2455 48.3753 9.694ZM88.4991 9.78667C87.4212 10.7427 86.3893 11.6942 85.4923 12.8254C84.4002 14.2027 84.3307 14.7169 85.1922 16.2002L91.1452 26.4791L94.1679 32.8031C95.6605 32.7975 97.1935 32.3296 98.5827 31.8023C99.7828 31.3988 102.778 30.3117 103.373 29.063L103.454 28.836C103.266 28.4052 102.7 27.9412 102.38 27.5879L100.008 24.7186L94.7828 17.4567L90.9947 12.595C90.2007 11.6486 89.3983 10.6345 88.4991 9.78667ZM71.6315 15.8031C63.9885 16.3947 60.4199 21.9454 58.9491 29.0436C58.6302 30.5828 57.9782 32.1179 60.13 31.8599C62.4488 31.5819 64.5097 29.2018 65.8968 27.5436C66.4483 26.8844 66.9464 26.1301 67.6531 25.6248C68.2728 25.1819 69.9111 24.6105 70.6105 25.1835C71.9063 26.2451 70.967 26.2689 73.0879 26.6533L76.1292 27.0572C77.4291 27.1801 77.2606 28.6463 76.4843 28.9946L78.043 30.391L87.0837 37.6552C88.7343 36.6362 90.8042 33.7179 91.2879 31.7322C91.4457 31.0842 83.9961 17.4769 82.9417 16.9812L81.0716 16.9531C77.9079 16.7509 74.8247 15.5301 71.6315 15.8031ZM54.222 17.432L43.5097 33.5294L46.7207 36.8834C46.8703 37.0445 46.9188 37.1652 47.1132 37.3001C49.1802 37.2913 51.1758 37.7803 51.9885 39.9982L52.1443 40.3218C54.527 40.368 56.3445 41.6186 56.7046 44.0452C56.7926 44.6381 56.6214 44.5778 57.2273 44.6287C59.6699 44.8339 61.0042 46.8768 61.0234 49.1556C61.0249 49.3258 61.5915 49.3618 61.7564 49.4266C64.2822 50.4198 65.4365 53.4374 63.6739 55.6174C63.3931 55.9649 63.0912 56.2973 62.8809 56.6942C63.6161 57.3913 65.0497 57.2242 65.7197 56.5106C66.636 55.5347 66.6011 54.8131 68.1073 55.3471L69.5678 55.8947C70.3251 56.1447 71.0963 56.3287 71.8977 56.3434C73.2518 56.3682 73.7206 55.2552 72.8281 54.5265C72.4303 54.2017 71.8739 53.9802 71.4086 53.7703L68.6495 52.6201C67.8048 52.2965 66.83 52.0162 66.0681 51.5312C65.0243 50.867 65.2896 49.67 66.1408 49.5585C66.6833 49.4875 67.3987 49.834 67.8918 50.0276L71.6152 51.5995C72.7248 52.066 74.924 53.3385 75.7081 51.7699C74.9861 51.1032 74.0788 50.5889 73.2531 50.0583L70.0977 48.0349C69.5163 47.6714 68.8109 47.3173 68.3039 46.8582C67.3821 46.0235 68.4894 44.7934 69.6212 45.3073C70.4029 45.6623 71.1686 46.2447 71.8931 46.707C73.5722 47.7786 75.2547 48.8309 76.8445 50.0327L77.9975 50.9565C78.3905 51.2984 78.7935 51.6978 79.2761 51.9112C80.9784 52.6634 82.0833 50.9979 80.7578 49.6899L77.4478 46.8704L73.3535 44.2192C72.6733 43.8015 71.9009 43.4093 71.2801 42.9106C70.2641 42.0949 71.2072 40.6649 72.4379 41.2103C72.9083 41.4187 73.3966 41.8033 73.8438 42.0712C76.1429 43.4481 78.3931 44.9033 80.4361 46.6427C80.8694 47.0117 82.9118 48.9647 83.25 49.0126C84.2526 49.1546 85.1858 48.2861 85.329 47.3506C84.5998 45.2532 79.6862 41.9101 77.7498 40.6305L76.3401 39.7128C75.6826 39.2843 74.7061 38.7067 75.1935 37.7684C75.5444 37.0933 76.4256 37.2706 76.9453 37.6002L82.267 41.2934C82.7571 41.6638 85.0921 43.7716 85.6367 43.6811C86.1886 43.5896 86.8159 43.144 87.0995 42.6799C88.386 40.574 81.3407 35.7952 79.9951 34.7293L75.6378 30.9594C74.4625 29.8529 74.3638 29.5133 72.809 29.0507C70.6877 28.4195 70.7294 27.9718 69.2076 27.0781C68.3464 27.6074 67.7997 28.5653 67.1497 29.3241C65.5112 31.2367 63.4281 33.317 60.8731 33.8569C59.2846 34.1926 57.1545 33.8212 56.6266 32.036L56.6028 31.9572C56.4125 31.2767 56.5985 30.4044 56.713 29.7209C57.2308 26.6316 58.2306 23.5261 59.8334 20.8186L61.6863 18.2526C61.5033 18.0669 61.0738 18.0586 60.8274 18.0557L57.999 18.0654C56.3232 18.1059 55.7125 18.3208 54.222 17.432ZM47.874 39.4458C45.8495 39.9209 45.3069 42.2793 47.2512 43.3793L47.5568 43.5199C47.7464 43.4057 47.9141 43.2918 48.0827 43.1472L49.0198 42.3088C49.3335 42.0365 50.1213 41.4969 50.1389 41.0592C50.1789 40.0739 48.8972 39.4068 48.057 39.4319L47.874 39.4458ZM52.561 42.3935C51.5433 42.6905 50.795 43.526 50.0369 44.2224C48.8733 45.2916 45.8644 47.9539 48.5823 49.2546C48.9166 49.4145 49.3103 49.4628 49.6788 49.4429C50.4981 49.3148 51.0002 48.7654 51.5694 48.2145L52.8774 46.9417C53.3917 46.4396 54.027 45.9262 54.4469 45.35C55.3166 44.1565 53.9283 42.2967 52.561 42.3935ZM56.6806 46.749C55.4774 47.0248 52.5506 50.0069 51.9897 50.864C51.3526 51.8376 52.5871 53.7567 54.2306 53.523C55.3354 53.153 56.1162 52.0052 56.9239 51.2259C57.4574 50.7113 58.0622 50.2464 58.5728 49.7135C59.6543 48.5846 58.4527 46.6841 56.6806 46.749ZM60.3624 51.3825C59.3539 51.5789 57.3193 53.5748 56.7129 54.4852C56.0666 55.4553 57.298 57.0961 58.6496 57.0397C59.5635 56.8337 60.193 56.1496 60.8543 55.5344C61.9616 54.504 63.511 52.8244 61.5557 51.6371C61.1729 51.4046 60.7977 51.3719 60.3624 51.3825Z" fill="#F4FFFE"/>
<path d="M38.8004 29.8915C35.8406 30.0132 35.4092 26.0015 38.2878 25.4669C41.0747 25.1743 41.8617 29.3343 38.8004 29.8915ZM38.5937 27.7467L38.5692 27.9282L38.7298 27.9737L38.5937 27.7467ZM98.9579 30.2587C95.8442 30.6497 94.8842 26.2467 98.2057 25.693C101.22 25.3886 102.164 29.5243 98.9579 30.2587ZM98.4215 27.7467C98.2959 27.8454 98.2962 27.8403 98.2662 27.9963L98.3407 28.0845C98.438 28.0816 98.5374 28.0854 98.6326 28.0645L98.7585 27.9737C98.6823 27.7953 98.6076 27.7517 98.4215 27.7467Z" fill="#F4FFFE"/>
<path d="M1.33333 32.6565H10.6667V41.2827C10.6667 41.6096 10.8071 41.923 11.0572 42.1541C11.3072 42.3852 11.6464 42.5151 12 42.5151C12.3536 42.5151 12.6928 42.3852 12.9428 42.1541C13.1929 41.923 13.3333 41.6096 13.3333 41.2827V32.6565H22.6667C23.0203 32.6565 23.3594 32.5267 23.6095 32.2955C23.8595 32.0644 24 31.751 24 31.4242C24 31.0973 23.8595 30.7839 23.6095 30.5528C23.3594 30.3217 23.0203 30.1918 22.6667 30.1918H13.3333V21.5656C13.3333 21.2387 13.1929 20.9253 12.9428 20.6942C12.6928 20.4631 12.3536 20.3333 12 20.3333C11.6464 20.3333 11.3072 20.4631 11.0572 20.6942C10.8071 20.9253 10.6667 21.2387 10.6667 21.5656V30.1918H1.33333C0.979711 30.1918 0.640573 30.3217 0.390525 30.5528C0.140476 30.7839 0 31.0973 0 31.4242C0 31.751 0.140476 32.0644 0.390525 32.2955C0.640573 32.5267 0.979711 32.6565 1.33333 32.6565Z" fill="#F4FFFE"/>
</svg>
